<svg xmlns="http://www.w3.org/2000/svg" viewBox="0 0 64 64" role="img" aria-hidden="true">
  <circle cx="32" cy="32" r="31" fill="#1ED760"/>
  <path d="M46.9 41.9a2.6 2.6 0 0 1-3.6.9c-5.7-3.5-12.8-4.3-21.2-2.4a2.6 2.6 0 1 1-1.2-5.1c9.8-2.2 18.2-1.2 25.1 3 .7.5 1.3 1.2 1.5 2.1.2.9 0 1.8-.6 2.5Zm4-8.8a3.2 3.2 0 0 1-4.4 1c-6.6-4-16.7-5.2-24.5-2.8a3.2 3.2 0 0 1-1.9-6.1c9.6-3 21.5-1.6 29.7 3.4a3.2 3.2 0 0 1 1.1 4.5Zm.4-9.2c-7.8-4.6-20.7-5-28.2-2.7a3.8 3.8 0 1 1-2.2-7.2c8.6-2.6 23-2.1 34.2 4.4a3.8 3.8 0 0 1-3.8 6.6Z" fill="#0E0F11"/>
</svg>
